HIERARCHY
ROOT pelvis
{
  OFFSET 0 100 0
  CHANNELS 6 Xposition Yposition Zposition Zrotation Xrotation Yrotation
  JOINT pelvis_right_femur
  {
    OFFSET -10.78128 -3.44521 -0.5502486
    CHANNELS 3 Zrotation Xrotation Yrotation
    JOINT right_femur_tibia
    {
      OFFSET -0.8047443 -44.0398 -0.1307829
      CHANNELS 3 Zrotation Xrotation Yrotation
      JOINT right_tibia_foot
      {
        OFFSET 3.006224 -47.83518 -5
        CHANNELS 3 Zrotation Xrotation Yrotation
        End Site
        {
          OFFSET 0 -5 15
        }
      }
    }
  }
  JOINT pelvis_left_femur
  {
    OFFSET 10.78128 -3.44521 -0.5502486
    CHANNELS 3 Zrotation Xrotation Yrotation
    JOINT left_femur_tibia
    {
      OFFSET 0.8047443 -44.0398 -0.1307829
      CHANNELS 3 Zrotation Xrotation Yrotation
      JOINT left_tibia_foot
      {
        OFFSET -4.370144 -48.10324 -4.275266
        CHANNELS 3 Zrotation Xrotation Yrotation
        End Site
        {
          OFFSET 0 -5 15
        }
      }
    }
  }
  JOINT pelvis_spine1
  {
    OFFSET 0 6.468898 -3.129235
    CHANNELS 3 Zrotation Xrotation Yrotation
    JOINT spine1
    {
      OFFSET 0 23.15396 4.99043
      CHANNELS 3 Zrotation Xrotation Yrotation
      JOINT spine2
      {
        OFFSET 0 20.79997 -5.064912
        CHANNELS 3 Zrotation Xrotation Yrotation
        JOINT neck
        {
          OFFSET 0 14.38658 9.616178
          CHANNELS 3 Zrotation Xrotation Yrotation
          End Site
          {
            OFFSET 0 20 0
          }
        }
      }
      JOINT right_manubrium
      {
        OFFSET -5.722621 16.35077 3.967754
        CHANNELS 3 Zrotation Xrotation Yrotation
        JOINT right_clavicle
        {
          OFFSET -13.16364 1.694482 -4.693211
          CHANNELS 3 Zrotation Xrotation Yrotation
          JOINT right_humerus
          {
            OFFSET -28.5034 -0.3100689 -2.792744
            CHANNELS 3 Zrotation Xrotation Yrotation
            JOINT right_radius
            {
              OFFSET -25.15693 0.02248979 -1.271978
              CHANNELS 3 Zrotation Xrotation Yrotation
              End Site
              {
                OFFSET -15 0 0
              }
            }
          }
        }
      }
      JOINT left_manubrium
      {
        OFFSET 5.722621 16.35077 3.967754
        CHANNELS 3 Zrotation Xrotation Yrotation
        JOINT left_clavicle
        {
          OFFSET 13.16364 1.694482 -4.693211
          CHANNELS 3 Zrotation Xrotation Yrotation
          JOINT left_humerus
          {
            OFFSET 29.39168 -1.063119 -2.237045
            CHANNELS 3 Zrotation Xrotation Yrotation
            JOINT left_radius
            {
              OFFSET 24.59957 -0.9528479 0.9047498
              CHANNELS 3 Zrotation Xrotation Yrotation
              End Site
              {
                OFFSET 15 -0 -0
              }
            }
          }
        }
      }
    }
  }
}
MOTION
Frames: 11
Frame Time: 0.0416666666667
1287.584 102.0135 2864.093 4.797855 -2.473685 36.85622 -0.8413112 13.70219 4.827567 -0 44.19271 -0 0.2084692 0.7871525 -1.646392 -4.437719 -18.31603 -7.381747 -0 21.5038 -0 -0.6779639 -8.09179 18.42341 -2.743686 0.2973772 5.477594 2.360061 9.46905 -6.062219 0.4371625 22.57573 6.373375 3.321709 -21.41123 5.535116 5.463117 -18.88059 12.34556 79.08804 32.95785 -9.667851 -0 0 15.42499 -17.35825 10.62055 12.43663 2.362489 -18.68377 -3.519554 -89.77784 26.77374 19.7355 0 0 -18.26454 -2.49949 10.69109 17.13145
1292.67 103.0492 2868.809 5.439608 -3.226131 37.7261 -0.6375663 9.487145 4.834843 -0 49.85861 -0 0.5554765 2.973531 -3.045917 -5.021082 -14.25457 -7.770089 -0 21.88216 -0 -0.3740199 -9.044152 18.40316 -2.765273 0.291201 5.271246 2.503855 9.4251 -6.215804 0.422732 22.58271 6.384798 3.295368 -21.5977 5.593388 5.519591 -18.67654 12.33609 79.47708 33.02224 -10.29736 -0 0 14.96518 -17.14415 10.61325 12.29155 2.349987 -18.69142 -3.584412 -89.78393 26.88631 19.60972 0 0 -18.24971 -2.543159 10.79339 17.09724
1297.505 104.122 2873.265 5.933292 -3.967918 38.76559 -0.2583785 4.758628 4.773414 -0 52.77206 -0 0.9676232 3.676351 -4.510088 -5.215366 -10.11711 -7.853151 -0 21.34177 -0 -0.3794654 -10.11924 18.25222 -2.775789 0.2844015 5.081932 2.636365 9.383633 -6.358731 0.4128927 22.57687 6.394824 3.273525 -21.7745 5.649707 5.565955 -18.48793 12.32622 79.8426 33.06246 -10.88842 -0 0 14.55368 -16.94443 10.60988 12.15028 2.352149 -18.70412 -3.63348 -89.79344 26.96636 19.49307 0 0 -18.22986 -2.562048 10.89044 17.03946
1302.109 105.0678 2877.489 6.279958 -4.550557 39.87332 0.1047255 -0.1164594 4.637954 -0 53.19476 -0 1.409406 3.260606 -5.889186 -5.2239 -6.026642 -7.79607 -0 20.20783 -0 -0.6658519 -11.30271 17.8872 -2.776034 0.2795107 4.906079 2.760673 9.348887 -6.494724 0.4069535 22.55738 6.40246 3.253855 -21.94089 5.702747 5.605159 -18.30791 12.31752 80.19148 33.07467 -11.45097 -0 0 14.17386 -16.76676 10.61462 12.01806 2.365682 -18.72249 -3.671145 -89.79607 26.99963 19.37427 0 0 -18.20398 -2.551932 10.97633 16.95151
1306.517 105.7492 2881.542 6.502471 -4.92705 40.97051 0.3496298 -4.95467 4.416284 -0 51.37377 -0 1.826642 2.033824 -7.129855 -5.170353 -2.003163 -7.702723 -0 18.75342 -0 -1.201616 -12.60041 17.30658 -2.767057 0.2781395 4.737974 2.88125 9.321706 -6.628491 0.4038738 22.52397 6.408164 3.234657 -22.09983 5.752499 5.639759 -18.12942 12.31118 80.53174 33.059 -11.9974 -0 0 13.80789 -16.61247 10.62936 11.89766 2.387094 -18.74668 -3.701051 -89.78375 26.97995 19.24333 0 0 -18.17417 -2.513203 11.04869 16.83215
1310.778 106.0565 2885.5 6.615724 -5.077411 41.99359 0.4191613 -9.617137 4.085343 -0 47.48707 -0 2.15637 0.2932394 -8.195424 -5.127471 1.926779 -7.633472 -0 17.21594 -0 -1.940728 -14.01208 16.53827 -2.749957 0.2809363 4.572073 3.002163 9.300558 -6.764072 0.402583 22.47691 6.413353 3.215081 -22.25553 5.799718 5.671412 -17.94714 12.30788 80.86957 33.01825 -12.5377 -0 0 13.44165 -16.47898 10.65404 11.79014 2.413419 -18.77646 -3.725591 -89.75138 26.90798 19.09339 0 0 -18.14462 -2.449646 11.10754 16.68478
1314.949 105.917 2889.451 6.628207 -4.993111 42.89639 0.2952188 -13.94504 3.629109 -0 41.7881 -0 2.351674 -1.625158 -9.051758 -5.136086 5.691824 -7.617012 -0 15.84725 -0 -2.815357 -15.51091 15.63517 -2.726022 0.2875271 4.404321 3.126066 9.28222 -6.903843 0.4021348 22.41737 6.419956 3.195146 -22.41208 5.845579 5.700782 -17.75856 12.30761 81.2078 32.95763 -13.07701 -0 0 13.06722 -16.36087 10.68672 11.69489 2.442433 -18.81119 -3.745895 -89.69771 26.79135 18.92214 0 0 -18.12081 -2.367941 11.15507 16.51712
1319.094 105.3119 2893.487 6.551557 -4.688965 43.65829 0.01683813 -17.75741 3.066134 -0 34.75153 -0 2.403113 -3.333117 -9.679903 -5.207286 9.190697 -7.647082 -0 14.92915 -0 -3.734202 -17.02228 14.68259 -2.697196 0.2964141 4.233254 3.253396 9.262043 -7.047418 0.4017774 22.34837 6.429932 3.175635 -22.57246 5.89146 5.727562 -17.56532 12.30955 81.54415 32.88545 -13.61277 -0 0 12.68552 -16.25009 10.72297 11.60961 2.472285 -18.8491 -3.762017 -89.62688 26.64676 18.73411 0 0 -18.10808 -2.278343 11.19585 16.34218
1323.287 104.2991 2897.702 6.402824 -4.219215 44.2909 -0.298659 -20.87977 2.477924 -0 27.16696 -0 2.347646 -4.438583 -10.09382 -5.314693 12.33554 -7.676843 -0 14.75888 -0 -4.604911 -18.39808 13.78685 -2.666722 0.3051845 4.061336 3.381517 9.23456 -7.190284 0.4009811 22.27604 6.444504 3.157705 -22.73716 5.938442 5.750696 -17.37471 12.3122 81.86892 32.81356 -14.13087 -0 0 12.30905 -16.13728 10.75548 11.53094 2.500409 -18.88615 -3.773538 -89.54964 26.50147 18.54307 0 0 -18.10929 -2.195648 11.23639 16.17933
1327.601 103.0301 2902.193 6.19376 -3.687363 44.83291 -0.4523452 -23.16753 2.025828 -0 20.13145 -0 2.247134 -4.674429 -10.35415 -5.383145 15.08976 -7.633209 -0 15.63827 -0 -5.394573 -19.39154 13.03739 -2.639794 0.3113187 3.896554 3.503739 9.195231 -7.322477 0.3993718 22.21066 6.463202 3.142163 -22.90135 5.986191 5.768946 -17.20067 12.31402 82.1624 32.7565 -14.60074 -0 0 11.96373 -16.016 10.77459 11.45729 2.521742 -18.91485 -3.780834 -89.48225 26.39128 18.37253 0 0 -18.12244 -2.139579 11.28259 16.05469
1332.099 101.7478 2907.049 5.913583 -3.245794 45.32146 -0.1899094 -24.47951 1.942873 -0 14.91652 -0 2.120307 -4.075424 -10.55594 -5.284924 17.42954 -7.472307 -0 17.91085 -0 -6.193942 -19.64996 12.47646 -2.624116 0.3133716 3.754521 3.607858 9.143454 -7.427485 0.3965026 22.1672 6.4831 3.128741 -23.05003 6.031099 5.781659 -17.06459 12.31444 82.39162 32.72968 -14.96912 -0 0 11.68953 -15.8906 10.77042 11.39384 2.526846 -18.9239 -3.786888 -89.4421 26.35456 18.25329 0 0 -18.14038 -2.134295 11.33489 16.00099
